<svg width="32" height="12" viewBox="0 0 32 12" fill="none" xmlns="http://www.w3.org/2000/svg">
<path d="M3.02477 11.2287C2.63036 11.2287 2.26909 11.1326 1.94096 10.9403C1.61284 10.7448 1.351 10.483 1.15545 10.1548C0.963216 9.8267 0.867099 9.46544 0.867099 9.07102C0.867099 8.6733 0.963216 8.31037 1.15545 7.98224C1.351 7.65412 1.61284 7.39228 1.94096 7.19673C2.26909 7.00118 2.63036 6.90341 3.02477 6.90341H4.17818V4.90483H3.02477C2.63036 4.90483 2.26909 4.80871 1.94096 4.61648C1.61284 4.42093 1.351 4.16075 1.15545 3.83594C0.963216 3.50781 0.867099 3.14489 0.867099 2.74716C0.867099 2.34943 0.963216 1.98816 1.15545 1.66335C1.351 1.33523 1.61284 1.07505 1.94096 0.882812C2.26909 0.687263 2.63036 0.589488 3.02477 0.589488C3.4225 0.589488 3.78542 0.687263 4.11355 0.882812C4.44167 1.07505 4.70351 1.33523 4.89906 1.66335C5.09461 1.98816 5.19238 2.34943 5.19238 2.74716V3.89062H7.19096V2.74716C7.19096 2.34943 7.28708 1.98816 7.47932 1.66335C7.67486 1.33523 7.93504 1.07505 8.25985 0.882812C8.58798 0.687263 8.95091 0.589488 9.34863 0.589488C9.74636 0.589488 10.1076 0.687263 10.4324 0.882812C10.7606 1.07505 11.0207 1.33523 11.213 1.66335C11.4085 1.98816 11.5063 2.34943 11.5063 2.74716C11.5063 3.14489 11.4085 3.50781 11.213 3.83594C11.0207 4.16075 10.7606 4.42093 10.4324 4.61648C10.1076 4.80871 9.74636 4.90483 9.34863 4.90483H8.20517V6.90341H9.34863C9.74636 6.90341 10.1076 7.00118 10.4324 7.19673C10.7606 7.39228 11.0207 7.65412 11.213 7.98224C11.4085 8.31037 11.5063 8.6733 11.5063 9.07102C11.5063 9.46544 11.4085 9.8267 11.213 10.1548C11.0207 10.483 10.7606 10.7448 10.4324 10.9403C10.1076 11.1326 9.74636 11.2287 9.34863 11.2287C8.95091 11.2287 8.58798 11.1326 8.25985 10.9403C7.93504 10.7448 7.67486 10.483 7.47932 10.1548C7.28708 9.8267 7.19096 9.46544 7.19096 9.07102V7.91761H5.19238V9.07102C5.19238 9.46544 5.09461 9.8267 4.89906 10.1548C4.70351 10.483 4.44167 10.7448 4.11355 10.9403C3.78542 11.1326 3.4225 11.2287 3.02477 11.2287ZM3.02477 10.2145C3.23689 10.2145 3.42913 10.1631 3.60147 10.0604C3.77714 9.95762 3.91634 9.82008 4.01909 9.64773C4.12515 9.47206 4.17818 9.27983 4.17818 9.07102V7.91761H3.02477C2.81596 7.91761 2.62373 7.97064 2.44806 8.0767C2.27572 8.17945 2.13817 8.31866 2.03542 8.49432C1.93268 8.66667 1.8813 8.8589 1.8813 9.07102C1.8813 9.27983 1.93268 9.47206 2.03542 9.64773C2.13817 9.82008 2.27572 9.95762 2.44806 10.0604C2.62373 10.1631 2.81596 10.2145 3.02477 10.2145ZM3.02477 3.89062H4.17818V2.74716C4.17818 2.53504 4.12515 2.3428 4.01909 2.17045C3.91634 1.99811 3.77714 1.86056 3.60147 1.75781C3.42913 1.65507 3.23689 1.60369 3.02477 1.60369C2.81596 1.60369 2.62373 1.65507 2.44806 1.75781C2.27572 1.86056 2.13817 1.99811 2.03542 2.17045C1.93268 2.3428 1.8813 2.53504 1.8813 2.74716C1.8813 2.95928 1.93268 3.15317 2.03542 3.32883C2.13817 3.50118 2.27572 3.63873 2.44806 3.74148C2.62373 3.84091 2.81596 3.89062 3.02477 3.89062ZM8.20517 3.89062H9.34863C9.56075 3.89062 9.75299 3.84091 9.92534 3.74148C10.0977 3.63873 10.2352 3.50118 10.338 3.32883C10.4407 3.15317 10.4921 2.95928 10.4921 2.74716C10.4921 2.53504 10.4407 2.3428 10.338 2.17045C10.2352 1.99811 10.0977 1.86056 9.92534 1.75781C9.75299 1.65507 9.56075 1.60369 9.34863 1.60369C9.13651 1.60369 8.94262 1.65507 8.76696 1.75781C8.59461 1.86056 8.45706 1.99811 8.35432 2.17045C8.25488 2.3428 8.20517 2.53504 8.20517 2.74716V3.89062ZM9.34863 10.2145C9.56075 10.2145 9.75299 10.1631 9.92534 10.0604C10.0977 9.95762 10.2352 9.82008 10.338 9.64773C10.4407 9.47206 10.4921 9.27983 10.4921 9.07102C10.4921 8.8589 10.4407 8.66667 10.338 8.49432C10.2352 8.31866 10.0977 8.17945 9.92534 8.0767C9.75299 7.97064 9.56075 7.91761 9.34863 7.91761H8.20517V9.07102C8.20517 9.27983 8.25488 9.47206 8.35432 9.64773C8.45706 9.82008 8.59461 9.95762 8.76696 10.0604C8.94262 10.1631 9.13651 10.2145 9.34863 10.2145ZM5.19238 6.90341H7.19096V4.90483H5.19238V6.90341ZM17.2472 9.21023V2.64773H18.3609V9.21023H17.2472ZM14.5228 6.4858V5.37216H21.0853V6.4858H14.5228ZM30.6121 4C30.5028 3.66525 30.3586 3.36529 30.1796 3.10014C30.0039 2.83168 29.7935 2.60298 29.5482 2.41406C29.3063 2.22514 29.0312 2.08097 28.7229 1.98153C28.4147 1.8821 28.0766 1.83239 27.7087 1.83239C27.1055 1.83239 26.557 1.98816 26.0631 2.29972C25.5693 2.61127 25.1765 3.07031 24.8849 3.67685C24.5932 4.28338 24.4474 5.02746 24.4474 5.90909C24.4474 6.79072 24.5948 7.5348 24.8898 8.14134C25.1848 8.74787 25.5842 9.20691 26.088 9.51847C26.5918 9.83002 27.1585 9.9858 27.7883 9.9858C28.3716 9.9858 28.8853 9.86151 29.3295 9.61293C29.7769 9.36103 30.1249 9.00639 30.3735 8.54901C30.6254 8.0883 30.7513 7.5464 30.7513 6.9233L31.1292 7.00284H28.0667V5.90909H31.9445V7.00284C31.9445 7.84138 31.7655 8.57055 31.4076 9.19034C31.0529 9.81013 30.5624 10.2907 29.936 10.6321C29.3129 10.9702 28.597 11.1392 27.7883 11.1392C26.8867 11.1392 26.0946 10.9271 25.4118 10.5028C24.7324 10.0786 24.2021 9.47538 23.8209 8.69318C23.4431 7.91098 23.2542 6.98295 23.2542 5.90909C23.2542 5.10369 23.3619 4.3795 23.5773 3.73651C23.7961 3.0902 24.1043 2.54001 24.502 2.08594C24.8998 1.63187 25.3704 1.28385 25.914 1.0419C26.4575 0.799952 27.0558 0.678977 27.7087 0.678977C28.2457 0.678977 28.7461 0.76018 29.2101 0.922585C29.6775 1.08168 30.0934 1.30871 30.458 1.60369C30.8259 1.89536 31.1325 2.24503 31.3778 2.6527C31.623 3.05705 31.7921 3.50616 31.8849 4H30.6121Z" fill="#ABABAB"/>
</svg>
