<svg width="21" height="21" viewBox="0 0 21 21" fill="none" xmlns="http://www.w3.org/2000/svg">
<circle cx="10.5" cy="10.5" r="10.5" fill="white"/>
<circle cx="10.5" cy="10.5" r="10.5" fill="url(#paint0_linear_67_1013)"/>
<g filter="url(#filter0_d_67_1013)">
<path fill-rule="evenodd" clip-rule="evenodd" d="M4.65583 12.216C4.9933 12.5524 4.99329 13.0976 4.65582 13.4339L4.63853 13.4512C4.30106 13.7875 3.7539 13.7875 3.41643 13.4511C3.07896 13.1148 3.07896 12.5696 3.41644 12.2333L3.43372 12.216C3.7712 11.8797 4.31836 11.8797 4.65583 12.216Z" fill="white"/>
<path fill-rule="evenodd" clip-rule="evenodd" d="M8.71842 12.4755C9.05528 12.8124 9.05429 13.3577 8.71621 13.6934L6.32249 16.0702C5.98441 16.4059 5.43725 16.4049 5.10039 16.068C4.76353 15.7311 4.76452 15.1858 5.1026 14.8501L7.49632 12.4733C7.8344 12.1376 8.38155 12.1386 8.71842 12.4755Z" fill="white"/>
<path fill-rule="evenodd" clip-rule="evenodd" d="M11.9672 16.5671C12.232 16.1714 12.7685 16.0644 13.1656 16.3283L13.2175 16.3627C13.6146 16.6265 13.7219 17.1612 13.4571 17.5569C13.1924 17.9527 12.6559 18.0596 12.2588 17.7958L12.2069 17.7613C11.8098 17.4975 11.7025 16.9628 11.9672 16.5671Z" fill="white"/>
<path fill-rule="evenodd" clip-rule="evenodd" d="M17.67 12.1644C18.0075 12.5007 18.0075 13.046 17.67 13.3823L16.4947 14.5535C16.1573 14.8898 15.6101 14.8898 15.2726 14.5535C14.9352 14.2172 14.9352 13.6719 15.2726 13.3356L16.4479 12.1644C16.7854 11.8281 17.3325 11.8281 17.67 12.1644Z" fill="white"/>
<path fill-rule="evenodd" clip-rule="evenodd" d="M17.6872 7.83268C18.0247 8.16899 18.0247 8.71425 17.6872 9.05056L9.00243 17.7054C8.66496 18.0417 8.1178 18.0417 7.78033 17.7054C7.44285 17.3691 7.44285 16.8238 7.78033 16.4875L16.4651 7.83268C16.8026 7.49637 17.3497 7.49637 17.6872 7.83268Z" fill="white"/>
<path fill-rule="evenodd" clip-rule="evenodd" d="M16.0454 5.17167C16.3828 5.50798 16.3828 6.05324 16.0454 6.38955L11.0505 11.3671C10.7131 11.7035 10.1659 11.7035 9.82842 11.3671C9.49095 11.0308 9.49095 10.4856 9.82842 10.1493L14.8233 5.17167C15.1607 4.83536 15.7079 4.83536 16.0454 5.17167Z" fill="white"/>
<path fill-rule="evenodd" clip-rule="evenodd" d="M13.4093 3.48333C13.747 3.81941 13.7474 4.36468 13.4101 4.70122L6.98941 11.1084C6.65217 11.4449 6.10501 11.4453 5.76731 11.1092C5.42961 10.7731 5.42924 10.2278 5.76649 9.89129L12.1872 3.48415C12.5244 3.14761 13.0716 3.14725 13.4093 3.48333Z" fill="white"/>
<path fill-rule="evenodd" clip-rule="evenodd" d="M7.05053 5.53441C7.38742 5.8713 7.38648 6.41656 7.04843 6.75229L4.53373 9.2497C4.19567 9.58543 3.64852 9.5845 3.31163 9.24761C2.97473 8.91072 2.97567 8.36545 3.31373 8.02972L5.82843 5.53231C6.16648 5.19658 6.71364 5.19752 7.05053 5.53441Z" fill="white"/>
<path fill-rule="evenodd" clip-rule="evenodd" d="M8.59023 3.04205C9.06749 3.04205 9.45439 3.42761 9.45439 3.90323V3.98935C9.45439 4.46496 9.06749 4.85052 8.59023 4.85052C8.11297 4.85052 7.72607 4.46496 7.72607 3.98935V3.90323C7.72607 3.42761 8.11297 3.04205 8.59023 3.04205Z" fill="white"/>
</g>
<defs>
<filter id="filter0_d_67_1013" x="3.05957" y="2.36407" width="14.8807" height="16.7657" filterUnits="userSpaceOnUse" color-interpolation-filters="sRGB">
<feFlood flood-opacity="0" result="BackgroundImageFix"/>
<feColorMatrix in="SourceAlpha" type="matrix" values="0 0 0 0 0 0 0 0 0 0 0 0 0 0 0 0 0 0 127 0" result="hardAlpha"/>
<feOffset dy="0.494118"/>
<feComposite in2="hardAlpha" operator="out"/>
<feColorMatrix type="matrix" values="0 0 0 0 0 0 0 0 0 0 0 0 0 0 0 0 0 0 0.25 0"/>
<feBlend mode="normal" in2="BackgroundImageFix" result="effect1_dropShadow_67_1013"/>
<feBlend mode="normal" in="SourceGraphic" in2="effect1_dropShadow_67_1013" result="shape"/>
</filter>
<linearGradient id="paint0_linear_67_1013" x1="10.5" y1="0" x2="10.5" y2="21" gradientUnits="userSpaceOnUse">
<stop stop-color="#5860DA"/>
<stop offset="1" stop-color="#2731AC"/>
</linearGradient>
</defs>
</svg>
