<svg width="34" height="28" viewBox="0 0 34 28" fill="none" xmlns="http://www.w3.org/2000/svg">
<path d="M30.216 6.80884C30.2365 7.10557 30.2365 7.40231 30.2365 7.70178C30.2365 16.8267 23.2893 27.3505 10.5862 27.3505V27.345C6.83363 27.3505 3.15903 26.2757 0 24.2492C0.545651 24.3148 1.09404 24.3476 1.64379 24.349C4.75359 24.3517 7.77451 23.3084 10.221 21.3871C7.26578 21.331 4.67428 19.4043 3.76896 16.5915C4.80419 16.7911 5.87088 16.7501 6.88697 16.4725C3.66503 15.8216 1.34703 12.991 1.34703 9.70371C1.34703 9.67363 1.34703 9.64491 1.34703 9.61619C2.30705 10.1509 3.38194 10.4476 4.48145 10.4804C1.44686 8.4525 0.511463 4.41582 2.34398 1.25977C5.85037 5.57404 11.0238 8.19679 16.5774 8.47438C16.0208 6.07589 16.7812 3.56254 18.5754 1.87649C21.357 -0.738059 25.7318 -0.604049 28.3465 2.17596C29.8932 1.87102 31.3756 1.30353 32.7322 0.499474C32.2167 2.09801 31.1377 3.45588 29.6963 4.31873C31.0652 4.15738 32.4027 3.7909 33.6622 3.23162C32.735 4.62094 31.5671 5.83112 30.216 6.80884Z" fill="#1D9BF0"/>
</svg>
